<?xml version="1.0" encoding="us-ascii" standalone="no"?><svg xmlns="http://www.w3.org/2000/svg" xmlns:xlink="http://www.w3.org/1999/xlink" contentStyleType="text/css" height="191px" preserveAspectRatio="none" style="width:1033px;height:191px;background:#FFFFFF;" version="1.1" viewBox="0 0 1033 191" width="1033px" zoomAndPan="magnify"><defs/><g><ellipse cx="69.5" cy="16" fill="#222222" rx="10" ry="10" style="stroke:#222222;stroke-width:1.0;"/><g id="GatherArticles"><rect fill="#F1F1F1" height="50.2656" rx="12.5" ry="12.5" style="stroke:#181818;stroke-width:0.5;" width="125" x="7" y="111"/><line style="stroke:#181818;stroke-width:0.5;" x1="7" x2="132" y1="137.2969" y2="137.2969"/><text fill="#000000" font-family="sans-serif" font-size="14" lengthAdjust="spacing" textLength="105" x="17" y="128.9951">GatherArticles</text><text fill="#000000" font-family="sans-serif" font-size="12" lengthAdjust="spacing" textLength="100" x="12" y="153.4355">- Internet search</text></g><path d="M242.5,87 L432.5,87 A12.5,12.5 0 0 1 445,99.5 L445,113.2969 L230,113.2969 L230,99.5 A12.5,12.5 0 0 1 242.5,87 " fill="#F1F1F1" style="stroke:#F1F1F1;stroke-width:1.0;"/><rect fill="none" height="98.2969" rx="12.5" ry="12.5" style="stroke:#181818;stroke-width:0.5;" width="215" x="230" y="87"/><line style="stroke:#181818;stroke-width:0.5;" x1="230" x2="445" y1="113.2969" y2="113.2969"/><text fill="#000000" font-family="sans-serif" font-size="14" lengthAdjust="spacing" textLength="151" x="262" y="104.9951">ExtractRelevantData</text><g id="ExtractRelevantData.Python"><rect fill="#F1F1F1" height="50" rx="12.5" ry="12.5" style="stroke:#181818;stroke-width:0.5;" width="71" x="242" y="125.2969"/><line style="stroke:#181818;stroke-width:0.5;" x1="242" x2="313" y1="151.5938" y2="151.5938"/><text fill="#000000" font-family="sans-serif" font-size="14" lengthAdjust="spacing" textLength="51" x="252" y="143.292">Python</text></g><g id="ExtractRelevantData.ChatGPT"><rect fill="#F1F1F1" height="50" rx="12.5" ry="12.5" style="stroke:#181818;stroke-width:0.5;" width="83" x="353" y="125.2969"/><line style="stroke:#181818;stroke-width:0.5;" x1="353" x2="436" y1="151.5938" y2="151.5938"/><text fill="#000000" font-family="sans-serif" font-size="14" lengthAdjust="spacing" textLength="63" x="363" y="143.292">ChatGPT</text></g><!--link Python to ChatGPT--><g id="link_Python_ChatGPT"><path d="M313.2396,150.2969 C325.7392,150.2969 333.8813,150.2969 346.823,150.2969 " fill="none" id="Python-to-ChatGPT" style="stroke:#181818;stroke-width:1.0;"/><polygon fill="#181818" points="352.823,150.2969,343.823,146.2969,347.823,150.2969,343.823,154.2969,352.823,150.2969" style="stroke:#181818;stroke-width:1.0;"/><text fill="#000000" font-family="sans-serif" font-size="13" lengthAdjust="spacing" textLength="20" x="323" y="143.3638">API</text></g><g id="Predictions"><rect fill="#F1F1F1" height="50.2656" rx="12.5" ry="12.5" style="stroke:#181818;stroke-width:0.5;" width="109" x="508" y="111"/><line style="stroke:#181818;stroke-width:0.5;" x1="508" x2="617" y1="137.2969" y2="137.2969"/><text fill="#000000" font-family="sans-serif" font-size="14" lengthAdjust="spacing" textLength="81" x="522" y="128.9951">Predictions</text><text fill="#000000" font-family="sans-serif" font-size="12" lengthAdjust="spacing" textLength="89" x="513" y="153.4355">- Using Pandas</text></g><g id="Tableau"><rect fill="#F1F1F1" height="50" rx="12.5" ry="12.5" style="stroke:#181818;stroke-width:0.5;" width="76" x="652.5" y="111"/><line style="stroke:#181818;stroke-width:0.5;" x1="652.5" x2="728.5" y1="137.2969" y2="137.2969"/><text fill="#000000" font-family="sans-serif" font-size="14" lengthAdjust="spacing" textLength="56" x="662.5" y="128.9951">Tableau</text></g><g id="BlogArticle"><rect fill="#F1F1F1" height="50" rx="12.5" ry="12.5" style="stroke:#181818;stroke-width:0.5;" width="100" x="926.5" y="111"/><line style="stroke:#181818;stroke-width:0.5;" x1="926.5" x2="1026.5" y1="137.2969" y2="137.2969"/><text fill="#000000" font-family="sans-serif" font-size="14" lengthAdjust="spacing" textLength="80" x="936.5" y="128.9951">BlogArticle</text></g><!--link *start* to GatherArticles--><g id="link_*start*_GatherArticles"><path d="M69.5,26.259 C69.5,44.297 69.5,78.664 69.5,104.8184 " fill="none" id="*start*-to-GatherArticles" style="stroke:#181818;stroke-width:1.0;"/><polygon fill="#181818" points="69.5,110.8184,73.5,101.8184,69.5,105.8184,65.5,101.8184,69.5,110.8184" style="stroke:#181818;stroke-width:1.0;"/></g><!--link GatherArticles to ExtractRelevantData--><g id="link_GatherArticles_ExtractRelevantData"><path d="M132.334,136 C161.42,136 190.808,136 223.948,136 " fill="none" id="GatherArticles-to-ExtractRelevantData" style="stroke:#181818;stroke-width:1.0;"/><polygon fill="#181818" points="229.948,136,220.948,132,224.948,136,220.948,140,229.948,136" style="stroke:#181818;stroke-width:1.0;"/><text fill="#000000" font-family="sans-serif" font-size="13" lengthAdjust="spacing" textLength="61" x="150.5" y="129.0669">Free Text</text></g><!--link ExtractRelevantData to Predictions--><g id="link_ExtractRelevantData_Predictions"><path d="M445.058,136 C466.864,136 482.918,136 501.935,136 " fill="none" id="ExtractRelevantData-to-Predictions" style="stroke:#181818;stroke-width:1.0;"/><polygon fill="#181818" points="507.935,136,498.935,132,502.935,136,498.935,140,507.935,136" style="stroke:#181818;stroke-width:1.0;"/><text fill="#000000" font-family="sans-serif" font-size="13" lengthAdjust="spacing" textLength="26" x="463.5" y="129.0669">CSV</text></g><!--link Predictions to Tableau--><g id="link_Predictions_Tableau"><path d="M617.5,136 C629.096,136 634.693,136 646.289,136 " fill="none" id="Predictions-to-Tableau" style="stroke:#181818;stroke-width:1.0;"/><polygon fill="#181818" points="652.289,136,643.289,132,647.289,136,643.289,140,652.289,136" style="stroke:#181818;stroke-width:1.0;"/></g><!--link Tableau to BlogArticle--><g id="link_Tableau_BlogArticle"><path d="M728.774,136 C779.765,136 864.082,136 920.434,136 " fill="none" id="Tableau-to-BlogArticle" style="stroke:#181818;stroke-width:1.0;"/><polygon fill="#181818" points="926.434,136,917.434,132,921.434,136,917.434,140,926.434,136" style="stroke:#181818;stroke-width:1.0;"/><text fill="#000000" font-family="sans-serif" font-size="13" lengthAdjust="spacing" textLength="161" x="747" y="129.0669">Text + Tabeau Diagrams</text></g><!--SRC=[ROz12y8m38Nl-HKvA_i3EmXpq-6jwFGY7c8NriBie8qo4V-xBUmosIaaxtqllElgXbcsmPh4i2-yMDrpWFcAqR0RnPEM8_Vy8YSL2M6EUy-C3O_oJ-IOuS49UyU2WSbhWx2K4QELvzPgiODBN7cw00GXuSMV7q1KRp63IsXfI6hLHAnG1_W2m3mimtEmhaD5hgKm4oFTqBrdUi8qqsdR3zrK8kAf6QwJBycLfSxJ8_m0]--></g></svg>